<?xml version="1.0" encoding="utf-8"?>
<!-- Generator: Adobe Illustrator 26.4.1, SVG Export Plug-In . SVG Version: 6.00 Build 0)  -->
<svg version="1.1" id="Layer_1" xmlns="http://www.w3.org/2000/svg" xmlns:xlink="http://www.w3.org/1999/xlink" x="0px" y="0px"
	 viewBox="0 0 158.8 72.2" style="enable-background:new 0 0 158.8 72.2;" xml:space="preserve">
<style type="text/css">
	.st0{fill:#E9E9E9;}
</style>
<g id="noun-key-5003487" transform="translate(25.367 -322.008) rotate(45)">
	<path id="Path_1" class="st0" d="M228.5,237.1c2.2-14.8,13.1-26.7,27.7-30.1c7.5-1.8,15.3-1,22.4,2.1l49.2-49.2
		c0.6-0.6,1.4-0.9,2.2-0.9h14.4c1.7,0,3.1,1.4,3.1,3.1v14.4c0,0.8-0.3,1.6-0.9,2.2l-7.6,7.6c-0.6,0.6-1.4,0.9-2.2,0.9h-8.1v8.1
		c0,0.8-0.3,1.6-0.9,2.2l-4.4,4.4c-0.6,0.6-1.4,0.9-2.2,0.9H313v8.1c0,0.8-0.3,1.6-0.9,2.2l-14.7,14.7c3.1,7,3.8,14.9,2.1,22.4
		c-4.5,19.4-23.8,31.6-43.3,27.1C237.9,273.1,225.9,255.6,228.5,237.1L228.5,237.1z M262.7,253.1c0-5.2-4.2-9.4-9.4-9.4
		c-5.2,0-9.4,4.2-9.4,9.4c0,5.2,4.2,9.4,9.4,9.4l0,0C258.5,262.5,262.7,258.3,262.7,253.1C262.7,253.1,262.7,253.1,262.7,253.1z"/>
</g>
</svg>
